<svg aria-hidden="true" style="position:absolute;width:0;height:0;overflow:hidden" xmlns="http://www.w3.org/2000/svg">
  <defs>
    <symbol id="snowflake" viewBox="0 0 32 32">
      <path d="M17.143 0h-2.286v10.12L11.066.736l-2.119.856 3.889 9.627-7.342-7.342-1.616 1.616 7.037 7.037-9.119-3.984-.915 2.095 9.649 4.216H0v2.286h10.53L.881 21.359l.915 2.095 9.119-3.984-7.037 7.037 1.616 1.616 7.342-7.342-3.889 9.627 2.119.856 3.791-9.383v10.12h2.286v-10.12l3.791 9.383 2.119-.856-3.889-9.627 7.342 7.342 1.616-1.616-7.037-7.037 9.119 3.984.915-2.095-9.649-4.216H32v-2.286H21.47l9.649-4.216-.915-2.095-9.119 3.984 7.037-7.037-1.616-1.616-7.342 7.342 3.889-9.627-2.119-.856-3.791 9.384V0z"/>
    </symbol>
    <symbol id="moxa" viewBox="0 0 155 32">
      <path d="M34.788.701c2.95 0 5.318.97 7.104 2.911 1.786 1.902 2.678 4.406 2.678 7.511v19.098h-7.919V11.123c0-1.087-.252-1.941-.757-2.562-.505-.66-1.164-.99-1.98-.99H31.41c-1.087 0-2.038.408-2.853 1.223-.815.776-1.32 1.824-1.514 3.144v18.283h-7.919v-19.04c0-1.087-.252-1.96-.757-2.62s-1.164-.99-1.98-.99h-2.271c-1.126 0-2.116.505-2.97 1.514s-1.397 2.329-1.63 3.959v17.177H1.597V1.166h7.336v3.377c.699-1.165 1.592-2.096 2.678-2.795C12.737 1.049 13.863.7 14.988.7h3.261c1.397 0 2.659.369 3.785 1.106 1.164.738 2.077 1.766 2.737 3.086.854-1.32 1.863-2.348 3.028-3.086C29.002 1.068 30.264.7 31.584.7h3.202zm26.823 29.987c-2.446 0-4.619-.466-6.521-1.397-1.863-.971-3.319-2.329-4.367-4.076-1.009-1.747-1.514-3.765-1.514-6.055v-6.812c0-2.29.524-4.309 1.572-6.055 1.048-1.786 2.504-3.164 4.367-4.134 1.902-.97 4.076-1.456 6.521-1.456h5.24c2.445 0 4.6.485 6.463 1.456 1.902.97 3.377 2.348 4.425 4.134 1.048 1.747 1.572 3.765 1.572 6.055v6.812c0 2.29-.524 4.309-1.572 6.055s-2.523 3.105-4.425 4.076c-1.863.932-4.037 1.397-6.521 1.397h-5.24zm5.124-6.813c1.436 0 2.581-.485 3.435-1.456.854-1.009 1.281-2.31 1.281-3.901V12.87c0-1.592-.427-2.873-1.281-3.843-.854-1.009-1.98-1.514-3.377-1.514h-5.007c-1.397 0-2.523.505-3.377 1.514-.854.97-1.281 2.251-1.281 3.843v5.648c0 1.591.427 2.892 1.281 3.901.854.971 1.96 1.456 3.319 1.456h5.007zm23.717-8.384L79.797 1.167h8.85l6.405 8.617 6.406-8.617h8.85L99.652 15.491l11.004 14.731h-8.85l-6.754-9.083-6.754 9.083h-8.85l11.005-14.731zm31.187 15.197c-3.029 0-5.474-.757-7.337-2.271s-2.795-3.513-2.795-5.997v-2.154c0-2.445.971-4.406 2.91-5.881 1.941-1.514 4.503-2.271 7.687-2.271h3.55c1.01 0 2.098.136 3.262.407s2.231.641 3.202 1.106v-3.028c0-.97-.331-1.747-.99-2.329-.62-.621-1.456-.932-2.503-.932h-5.008c-1.086 0-1.961.252-2.62.757s-.99 1.184-.99 2.038h-7.685c0-2.834 1.029-5.104 3.086-6.812 2.096-1.747 4.832-2.62 8.21-2.62h5.008c3.415 0 6.172.912 8.268 2.737 2.096 1.786 3.143 4.173 3.143 7.162v19.622H132.7v-3.494a10.818 10.818 0 0 1-3.435 2.911c-1.358.699-2.697 1.048-4.018 1.048h-3.609zm4.192-6.056c1.436 0 2.716-.369 3.842-1.106a6.31 6.31 0 0 0 2.446-2.97v-.99c-.62-.466-1.495-.834-2.62-1.106a14.346 14.346 0 0 0-3.493-.407h-3.668c-.932 0-1.689.233-2.272.699-.581.466-.873 1.087-.873 1.863v1.514c0 .738.311 1.339.932 1.805.66.466 1.515.699 2.562.699h3.145zm23.639 6.172c-1.436 0-2.601-.427-3.495-1.281-.853-.893-1.28-2.057-1.28-3.494s.427-2.581 1.28-3.435c.894-.893 2.059-1.339 3.495-1.339s2.581.446 3.435 1.339c.892.854 1.339 1.999 1.339 3.435s-.446 2.601-1.339 3.494c-.853.854-1.998 1.281-3.435 1.281z"/>
    </symbol>
    <symbol id="star" viewBox="0 0 32 32">
      <path d="m16 0 2.204 10.678 9.109-5.992-5.992 9.109 10.678 2.204-10.678 2.204 5.992 9.109-9.109-5.992L16 31.998 13.796 21.32l-9.109 5.992 5.992-9.109L.001 15.999l10.678-2.204-5.992-9.109 9.109 5.992L16 0z"/>
    </symbol>
    <symbol id="customer1" viewBox="0 0 144 32">
      <path d="M35.34 6.667 26.734.783c-.733-.501-1.611-.77-2.511-.77s-1.778.269-2.511.77l-8.606 5.884c-.562.385-1.02.893-1.336 1.482s-.482 1.241-.483 1.904v11.923a.966.966 0 0 1-.412.793l-2.987 1.975 2.861 1.951 2.017-1.336c.562-.384 1.02-.892 1.336-1.48s.482-1.241.483-1.903V10.053c0-.158.04-.314.115-.455s.184-.262.317-.355l8.606-5.881a1.06 1.06 0 0 1 1.198 0l8.608 5.879c.135.092.245.213.32.354s.115.297.114.456v11.926c0 .158-.039.314-.115.454s-.185.262-.32.353l-8.608 5.859a1.1 1.1 0 0 1-1.274-.047l-1.639-.988-2.884 1.998 2.686 1.625c.733.501 1.611.77 2.511.77s1.778-.269 2.511-.77l8.606-5.881c.56-.383 1.018-.889 1.334-1.476s.483-1.237.485-1.897V10.054c0-.663-.165-1.315-.482-1.904s-.775-1.097-1.337-1.481z"/>
      <path d="m21.289 27.235 2.763-1.889c.56-.384 1.017-.89 1.333-1.476s.483-1.237.486-1.897V10.049c0-.154.037-.307.109-.445s.177-.258.306-.35l2.979-1.975-2.858-1.951-2.014 1.333c-.562.385-1.019.893-1.335 1.482s-.481 1.241-.481 1.904v11.926c0 .158-.039.314-.115.454s-.185.262-.32.353l-8.606 5.859a1.06 1.06 0 0 1-1.198 0l-8.603-5.872c-.133-.09-.241-.209-.317-.347s-.116-.292-.118-.448V10.048c-.001-.158.038-.315.113-.456s.185-.262.319-.354l8.606-5.881a1.105 1.105 0 0 1 1.286.047l1.59.965 2.92-1.975-2.676-1.62c-.733-.501-1.611-.77-2.511-.77s-1.778.269-2.511.77L1.82 6.663c-.562.384-1.021.892-1.337 1.481S.001 9.386.001 10.048v11.924c0 .662.166 1.315.482 1.904s.775 1.097 1.337 1.481l8.606 5.882c.733.501 1.611.77 2.511.77s1.778-.269 2.511-.77l2.941-2.01 2.899-1.975.003-.02zM57.022 3.761h-6.416v3.647c0 .412-.167.807-.466 1.102s-.706.467-1.134.478l-1.708.042v4.867h3.309v8.736c0 5.521 2.277 7.309 11.796 6.714v-5.012c-4.842.477-5.215-.795-5.215-2.343v-8.101h5.215V8.926h-5.38V3.763zM82.838.441c-2.316 0-3.586.494-3.586 3.119s1.266 3.119 3.586 3.119c2.282 0 3.473-.558 3.473-3.119 0-2.635-1.191-3.119-3.473-3.119zM86.073 8.924h-6.499v20.257h6.499V8.924zM102.79 8.565c-3.27 0-5.338 1.072-6.331 2.304v-9.77h-6.414v28.082c.072 0 .141 0 .213-.015h.288c.718 0 1.421-.198 2.026-.569s1.087-.901 1.388-1.527v-.015c.052-.106.132-.198.231-.266a.746.746 0 0 1 .984.13c1.23 1.43 2.943 2.284 5.377 2.516.506.067 1.015.102 1.526.104 3.681 0 6.023-1.494 7.425-3.654.077-.116.154-.247.226-.356l.144-.262a9.28 9.28 0 0 0 .296-.59l.064-.148c.108-.247.203-.494.293-.741 0-.027.018-.054.026-.082.09-.264.172-.533.242-.807 0-.035.018-.064.026-.096.057-.23.108-.462.152-.699l.057-.282c.018-.094.021-.148.033-.222.138-.856.21-1.721.214-2.588 0-5.205-1.945-10.447-8.485-10.447zm-2.192 15.847c-3.602 0-4.181-2.183-4.181-5.4 0-3.099.455-5.363 4.139-5.363 3.517 0 4.096 2.222 4.096 5.363 0 3.175-.579 5.4-4.055 5.4zM123.523 8.565c-7.698 0-9.519 2.978-9.519 7.309h6.29c0-1.63.744-2.82 3.394-2.82 2.814 0 3.725 1.235 3.725 3.573l-5.547.556c-5.917.598-8.691 2.222-8.691 6.118 0 4.249 3.808 6.237 8.773 6.237 3.213 0 5.341-.896 6.797-2.59a.733.733 0 0 1 .648-.258c.122.014.238.057.338.126s.179.161.231.268c.301.626.783 1.155 1.388 1.527s1.308.569 2.026.569h.491V17.701c-.005-5.244-1.34-9.136-10.345-9.136zm-.257 16.603c-2.359 0-3.345-.874-3.345-2.106 0-.953.787-1.667 3.345-1.906l4.139-.477c-.039 2.504-1.24 4.489-4.139 4.489zM144 1.099h-6.455v28.082H144V1.099zM77.367 8.533c-.208 0-.401.015-.602.022a7.625 7.625 0 0 0-4.631 1.235 6.724 6.724 0 0 0-1.557 1.326c-.077.092-.177.163-.29.207a.753.753 0 0 1-.695-.079.7.7 0 0 1-.231-.267c-.304-.626-.788-1.156-1.396-1.527s-1.314-.565-2.034-.562h-.491v.047h-.018v20.247h6.455v-10.37c0-2.701.746-5.281 5.588-4.805V8.605h-.087c-.003-.044-.005-.072-.01-.072z"/>
    </symbol>
    <symbol id="customer2" viewBox="0 0 325 32">
      <path d="M32.899 10.88c0-5.307-3.547-10.128-10.273-10.167C18.101.713 4.525.668-.001.668v30.72h5.384V21.137h14.242l8.322 10.251h6.398v-.391L25.7 20.522c5.425-1.186 7.22-5.436 7.22-9.642h-.021zM5.404 15.913V6.098h17.243c3.381 0 4.889 2.455 4.889 4.91s-1.467 4.91-4.889 4.91l-17.243-.006zM70.194.679c-4.484 0-18.018.045-22.502.045V31.4h5.378v-9.038h17.123c13.982 0 13.94-21.694 0-21.694v.011zm0 16.381H53.071V6.188h17.123c6.845 0 6.887 10.872 0 10.872zM168.529 15.528c2.648-1.275 3.709-3.551 3.709-5.923 0-6.152-4.198-8.892-9.826-8.892h-22.585v30.676h22.585c5.909 0 10.679-2.187 10.679-9.026 0-1.929-1.222-5.744-4.562-6.834zm-23.407-9.557h17.285c3.428 0 4.484 2.366 4.484 3.769 0 1.75-1.098 3.288-4.484 3.288h-17.279l-.005-7.058zm17.284 20.032h-17.279v-7.891h17.285c2.2 0 5.342 1.443 5.342 4.206 0 2.891-3.121 3.686-5.342 3.686zM191.348.714h-5.383v30.681h29.108v-5.352h-23.724V.714zM233.329.714h-5.342v30.681h5.342V.714zM273.667 22.916a11.486 11.486 0 0 1-2.6 2.08 13.979 13.979 0 0 1-3.397 1.387 15.853 15.853 0 0 1-4.098.503 15.136 15.136 0 0 1-5.332-.873 11.364 11.364 0 0 1-3.87-2.377 9.926 9.926 0 0 1-2.361-3.501 11.115 11.115 0 0 1-.796-4.139 11.222 11.222 0 0 1 .796-4.183 9.94 9.94 0 0 1 2.361-3.501 11.064 11.064 0 0 1 3.88-2.354 15.345 15.345 0 0 1 5.326-.85 16.193 16.193 0 0 1 3.912.459c1.139.275 2.245.688 3.299 1.23.947.491 1.824 1.13 2.6 1.896.467.471.891.99 1.264 1.549l4.536-2.696a14.842 14.842 0 0 0-1.979-2.461 16.3 16.3 0 0 0-3.488-2.673 17.852 17.852 0 0 0-4.464-1.778 21.963 21.963 0 0 0-5.399-.632c-2.607-.043-5.201.4-7.667 1.309a16.933 16.933 0 0 0-5.644 3.495c-1.479 1.398-2.663 3.118-3.475 5.047s-1.231 4.021-1.231 6.138.42 4.209 1.231 6.138 1.996 3.649 3.475 5.047a16.797 16.797 0 0 0 5.644 3.495 21.136 21.136 0 0 0 7.636 1.325 21.676 21.676 0 0 0 5.566-.677 17.895 17.895 0 0 0 4.549-1.885 15.803 15.803 0 0 0 3.528-2.796c.76-.81 1.432-1.713 1.997-2.69l-4.557-2.684a9.533 9.533 0 0 1-1.243 1.678zM117.075.68c-.605-.001-1.204.127-1.763.375s-1.067.613-1.495 1.073c-.428.46-.768 1.006-.999 1.606s-.351 1.245-.351 1.895h8.587v10.587a22.785 22.785 0 0 1-.863 4.139 9.94 9.94 0 0 1-2.361 3.501 11.344 11.344 0 0 1-3.875 2.377 11.222 11.222 0 0 1-8.842 0 11.344 11.344 0 0 1-3.875-2.377 9.942 9.942 0 0 1-2.362-3.501 22.767 22.767 0 0 1-.863-4.139V.68h-5.316v15.536c-.013 2.116.399 4.211 1.207 6.141s1.993 3.65 3.474 5.044a16.794 16.794 0 0 0 5.649 3.479 19.66 19.66 0 0 0 13.004 0 16.813 16.813 0 0 0 5.644-3.495c1.482-1.393 2.666-3.114 3.474-5.044s1.219-4.025 1.207-6.141V.68h-9.279zM305.339 5.764l-12.568 25.625h-5.352L302.358.904v-.19h7.939l15.037 30.676h-5.352l-3.195-6.487h-9.576a4.46 4.46 0 0 1-1.813-.388c-.573-.256-1.096-.631-1.536-1.104s-.789-1.035-1.027-1.653a5.393 5.393 0 0 1-.363-1.95h11.808l-6.901-14.043h-2.04z"/>
    </symbol>
    <symbol id="customer3" viewBox="0 0 277 32">
      <path d="M12.698 31.507 0 .495h6.505L15.8 23.631 25.15.495h6.504L18.892 31.507h-6.193zM37.253 13.274h19.074a9.992 9.992 0 0 0-3.504-5.308 9.376 9.376 0 0 0-5.974-2.075 9.544 9.544 0 0 0-6.157 2.048 9.952 9.952 0 0 0-3.44 5.335zm-1.912 14.083c-1.525-1.469-2.729-3.228-3.539-5.169s-1.209-4.023-1.172-6.121c-.035-2.101.358-4.187 1.156-6.137s1.985-3.723 3.491-5.215c1.46-1.526 3.229-2.733 5.194-3.546S44.553-.042 46.685 0a16.454 16.454 0 0 1 11.243 4.248c1.586 1.416 2.853 3.143 3.72 5.069s1.313 4.008 1.311 6.113c.005.931-.056 1.861-.183 2.784H37.252c.095 1.093.409 2.158.924 3.132s1.221 1.839 2.077 2.544a9.598 9.598 0 0 0 6.404 2.2c1.415.05 2.825-.201 4.133-.736s2.482-1.341 3.442-2.363l7.392.063a16.333 16.333 0 0 1-6.065 6.484 16.287 16.287 0 0 1-8.718 2.452c-2.138.041-4.261-.35-6.239-1.147s-3.769-1.984-5.261-3.487zM67.159 31.506V15.34c0-4.964 1.22-8.697 3.659-11.2 1.247-1.256 2.749-2.239 4.409-2.886s3.44-.943 5.225-.868h.631v5.901h-.631c-4.721 0-7.078 3.018-7.072 9.053v16.166h-6.221zM99.579 5.891c-1.36-.042-2.714.196-3.974.699s-2.4 1.259-3.344 2.22c-1.879 1.937-2.928 4.51-2.928 7.185s1.048 5.248 2.928 7.185c.931.958 2.056 1.714 3.302 2.221s2.586.754 3.934.724c1.335.033 2.662-.209 3.895-.71s2.347-1.25 3.268-2.2c1.847-1.953 2.873-4.52 2.873-7.185s-1.026-5.232-2.873-7.185c-.919-.952-2.031-1.704-3.266-2.207s-2.562-.745-3.898-.712l.082-.036zm-11.6-1.239C90.647 2.025 94.161.388 97.921.019s7.534.555 10.678 2.612c3.145 2.057 5.465 5.122 6.565 8.671s.914 7.363-.529 10.791-4.052 6.26-7.384 8.011c-3.331 1.751-7.178 2.314-10.885 1.593s-7.043-2.682-9.442-5.549a15.849 15.849 0 0 1-3.712-10.171c-.034-2.107.371-4.199 1.191-6.146s2.036-3.71 3.575-5.179zM147.874 31.507h-7.072l-8.151-11.101-8.151 11.101h-7.136l11.747-16.121L118.307.495h7.017l7.264 9.924L139.98.495h7.017l-10.804 14.891 11.682 16.121zM155.056 31.408V21.035h-5.663v-3.592h5.663v-1.105l.128-3.781c.341-3.766 1.543-6.724 3.604-8.873a12.717 12.717 0 0 1 8.234-3.718v3.79a9.403 9.403 0 0 0-5.398 2.793 9.617 9.617 0 0 0-2.433 6.017l-.128 3.781v1.105h9.962v3.592h-9.926v10.373l-4.044-.009zM179.481.504h-4.043v31.012h4.043V.504zM211.253 7.346c-1.119-1.15-2.47-2.058-3.966-2.668s-3.106-.906-4.725-.871c-1.627-.029-3.242.27-4.747.879s-2.866 1.514-3.999 2.66c-2.297 2.322-3.582 5.43-3.582 8.667s1.285 6.345 3.582 8.667c1.124 1.155 2.478 2.07 3.978 2.688s3.114.926 4.74.905c1.614.03 3.217-.268 4.708-.875s2.838-1.511 3.956-2.654c2.259-2.348 3.518-5.455 3.518-8.685s-1.259-6.337-3.518-8.685l.055-.027zm-20.282-2.694c2.668-2.627 6.182-4.264 9.942-4.633s7.534.555 10.678 2.612 5.465 5.122 6.565 8.671c1.101 3.549.914 7.363-.529 10.791s-4.053 6.26-7.384 8.011c-3.331 1.751-7.178 2.314-10.885 1.593s-7.044-2.682-9.442-5.549a15.854 15.854 0 0 1-3.712-10.171c-.034-2.107.371-4.199 1.191-6.146s2.036-3.71 3.575-5.179zM250.473 7.346c-1.119-1.15-2.469-2.058-3.966-2.668s-3.105-.906-4.725-.871c-1.627-.029-3.242.27-4.747.879s-2.865 1.514-3.999 2.66c-2.297 2.322-3.582 5.43-3.582 8.667s1.285 6.345 3.582 8.667c1.123 1.156 2.477 2.071 3.977 2.689s3.114.926 4.741.903c1.613.031 3.214-.267 4.704-.874s2.835-1.512 3.95-2.656c2.261-2.347 3.522-5.454 3.522-8.685s-1.26-6.338-3.522-8.685l.064-.027zm-20.272-2.694c2.668-2.627 6.182-4.264 9.942-4.633s7.534.555 10.678 2.612c3.144 2.057 5.465 5.122 6.565 8.671s.914 7.363-.529 10.791-4.053 6.26-7.384 8.011c-3.331 1.751-7.178 2.314-10.885 1.593s-7.044-2.682-9.442-5.549a15.854 15.854 0 0 1-3.712-10.171c-.034-2.107.371-4.199 1.19-6.146s2.037-3.71 3.576-5.179zM262.797 31.506V15.43c0-5 1.168-8.763 3.504-11.289a12.14 12.14 0 0 1 4.297-2.912 12.316 12.316 0 0 1 5.144-.869c.307-.005.613.013.915.054v3.79a4.993 4.993 0 0 0-.915-.063 8.144 8.144 0 0 0-3.595.677 7.985 7.985 0 0 0-2.909 2.179c-1.597 1.898-2.397 4.709-2.397 8.433v16.076h-4.043zM273.2 28.057h.685a1.1 1.1 0 0 0 .667-.144.425.425 0 0 0 .133-.168.412.412 0 0 0 .04-.209.465.465 0 0 0-.08-.27.535.535 0 0 0-.24-.179 1.99 1.99 0 0 0-.565-.054h-.64v1.024zm-.568 1.931v-3.422h1.208c.307-.016.616.014.915.09.176.064.331.18.437.332a.872.872 0 0 1 .165.503.849.849 0 0 1-.069.355.841.841 0 0 1-.205.3 1.099 1.099 0 0 1-.731.305.928.928 0 0 1 .301.189c.195.206.365.432.512.674l.429.674h-.685l-.312-.539a2.616 2.616 0 0 0-.595-.799.694.694 0 0 0-.448-.117h-.355v1.455h-.568zm1.427-4.419a2.77 2.77 0 0 0-1.325.35 2.447 2.447 0 0 0-1.016.979c-.24.403-.365.862-.365 1.329 0 .463.123.918.355 1.32.235.414.584.754 1.008.979a2.694 2.694 0 0 0 2.688 0 2.513 2.513 0 0 0 1.008-.979c.224-.405.344-.859.347-1.32 0-.466-.123-.924-.357-1.329a2.49 2.49 0 0 0-1.016-.979 2.763 2.763 0 0 0-1.269-.35h-.056zm0-.521a3.382 3.382 0 0 1 1.592.404c.512.271.933.679 1.216 1.177.28.489.427 1.039.429 1.599a3.09 3.09 0 0 1-.429 1.581 2.959 2.959 0 0 1-1.197 1.186 3.346 3.346 0 0 1-3.222 0 3.054 3.054 0 0 1-1.171-1.194c-.283-.483-.435-1.032-.435-1.59s.152-1.106.435-1.59a3.067 3.067 0 0 1 1.216-1.177 3.402 3.402 0 0 1 1.621-.395h-.056z"/>
    </symbol>
    <symbol id="customer4" viewBox="0 0 196 32">
      <path d="M40.007.026.258 15.866a.39.39 0 0 0-.189.167.416.416 0 0 0 0 .458.395.395 0 0 0 .189.151l11.801 4.264a.386.386 0 0 0 .199.023.421.421 0 0 0 .183-.075L34.829 4.51c.006-.002.012-.004.018-.004s.012.001.018.004.024.01.033.02a.045.045 0 0 1 0 .032.045.045 0 0 1 0 .036l-19.817 17.27a.437.437 0 0 0-.108.144.413.413 0 0 0-.033.177v9.196c-.002.083.023.165.072.232s.117.121.196.15a.395.395 0 0 0 .448-.131l5.72-7.062a.408.408 0 0 1 .206-.134.404.404 0 0 1 .248 0l7.291 2.648a.4.4 0 0 0 .3 0 .425.425 0 0 0 .212-.216L40.536.557a.398.398 0 0 0 .02-.229.382.382 0 0 0-.108-.206.4.4 0 0 0-.435-.094zM52.57 3.218h-3.593l.052 21.927h3.593L52.57 3.218zM63.881 9.367c-1.816 0-3.479.655-4.521 1.964V9.695h-3.387l.039 15.447h3.387l-.026-10.227a4.04 4.04 0 0 1 3.779-2.448c2.156 0 3.39 1.535 3.397 3.976l.02 8.699h3.387l-.023-9.239c0-3.993-2.358-6.522-6.053-6.513zM83.949 9.628l-4.691 10.826-4.707-10.8h-3.756l6.997 15.431h2.989l6.948-15.467-3.779.01zM96.137 9.292c-1.974.033-3.865.799-5.307 2.151s-2.331 3.191-2.494 5.163c-.164 1.971.41 3.933 1.609 5.505s2.938 2.641 4.879 3 3.947-.018 5.627-1.057a7.986 7.986 0 0 0 2.974-10.28 7.964 7.964 0 0 0-7.288-4.48zm.029 12.914c-2.737 0-4.655-2.121-4.658-4.87s1.888-4.886 4.635-4.909 4.625 2.124 4.632 4.873c.006 2.749-1.898 4.883-4.599 4.889l-.01.016zM110.018 9.554h-3.387l.043 15.447h3.384l-.039-15.447zM110.018 3.598h-3.387v3.135h3.387V3.598zM120.817 12.381a4.601 4.601 0 0 1 4.224 2.706l2.94-1.61a7.977 7.977 0 0 0-7.186-4.255c-4.606.007-8.101 3.485-8.101 8.064s3.544 8.021 8.166 8.015c1.473.02 2.922-.369 4.187-1.126s2.295-1.85 2.976-3.158l-2.959-1.61a4.59 4.59 0 0 1-4.211 2.729c-2.737 0-4.684-2.121-4.691-4.87s1.931-4.886 4.671-4.909zM137.813 9.184c-4.681 0-8.042 3.515-8.016 8.057 0 4.683 3.377 8.025 8.048 8.015 3.217 0 5.635-1.407 7.01-3.6l-2.574-1.846c-.797 1.358-2.251 2.353-4.397 2.359-2.554 0-4.593-1.659-4.753-4.192l12.086-.029c.029-.491.029-.772.029-1.113 0-4.968-3.407-7.648-7.438-7.642l.003-.01zm-4.541 6.316c.457-2.291 2.45-3.44 4.426-3.44s3.756 1.195 4.132 3.417l-8.558.023zM187.98 9.062h-.121a7.933 7.933 0 0 0-5.677 2.329 7.951 7.951 0 0 0-2.328 5.686v.043a7.955 7.955 0 0 0 2.344 5.695 7.93 7.93 0 0 0 5.699 2.313h.059a7.917 7.917 0 0 0 5.694-2.31 7.97 7.97 0 0 0 2.339-5.688v-.052a7.967 7.967 0 0 0-2.332-5.675 7.922 7.922 0 0 0-5.67-2.327l-.004-.013zm-.039 12.927c-2.741 0-4.651-2.121-4.658-4.866s1.898-4.889 4.632-4.909c2.734-.02 4.625 2.124 4.632 4.873s-1.898 4.883-4.606 4.889v.013zM173.99 9.406v1.42c-1.081-1.109-2.685-1.721-4.53-1.718-4.462 0-7.689 3.443-7.722 7.776a7.617 7.617 0 0 0 4.755 7.216c.949.383 1.966.57 2.989.55 1.852 0 3.449-.655 4.524-1.803v1.829c0 2.405-1.307 3.691-3.077 4.084-4.41.792-7.15-.54-7.15-.54l-1.081 2.775c1.575.982 6.458 1.263 8.725.763 3.266-.576 5.984-2.716 5.974-7.053l-.029-15.303-3.377.003zm.023 9.949a4.668 4.668 0 0 1-4.122 2.17c-2.675 0-4.622-1.996-4.655-4.65a4.47 4.47 0 0 1 .327-1.803c.226-.573.566-1.094.999-1.532s.951-.782 1.522-1.012a4.516 4.516 0 0 1 1.797-.329 4.723 4.723 0 0 1 4.129 2.12l.003 5.037zM151.545 21.989l4.619-6.283c.931-1.221 2.417-3.273 2.695-3.721 1.287-2.13 1.444-4.369.327-6.604-.911-1.82-2.522-2.707-4.504-2.945-2.78-.353-5.671.936-6.977 3.574a5.462 5.462 0 0 0-.588 1.843l2.963.655c.046-.128.088-.232.118-.327a3.724 3.724 0 0 1 2.077-2.457c1.081-.494 2.633-.301 3.469.422 1.401 1.221 1.382 3.273.366 4.582-.17.223-8.937 11.415-8.937 11.415a.532.532 0 0 0-.124.35v2.477l13.01-.033v-2.945h-8.512z"/>
    </symbol>
    <symbol id="linkedin" viewBox="0 0 32 32">
      <path d="M11.568 9.78c0 .471-.188.924-.523 1.257a1.79 1.79 0 0 1-2.523-.001 1.776 1.776 0 0 1 1.263-3.034 1.776 1.776 0 0 1 1.783 1.778zm.053 3.093H8.053v11.128h3.568V12.873zm5.637 0h-3.55v11.128h3.514v-5.84c0-3.253 4.255-3.555 4.255 0v5.84H25v-7.049c0-5.484-6.297-5.28-7.778-2.587l.036-1.493z"/>
    </symbol>
    <symbol id="twiter" viewBox="0 0 32 32">
      <path d="M26.162 9.658a8.385 8.385 0 0 1-2.402.658 4.195 4.195 0 0 0 1.84-2.314c-.82.488-1.719.83-2.656 1.015a4.182 4.182 0 0 0-7.126 3.814 11.866 11.866 0 0 1-8.62-4.37 4.164 4.164 0 0 0-.566 2.103c0 1.45.738 2.731 1.86 3.481a4.168 4.168 0 0 1-1.894-.523v.052c0 .966.334 1.902.946 2.649s1.463 1.26 2.409 1.452a4.206 4.206 0 0 1-1.89.072 4.185 4.185 0 0 0 3.907 2.905 8.402 8.402 0 0 1-6.191 1.732 11.835 11.835 0 0 0 6.41 1.88c7.693 0 11.9-6.373 11.9-11.9 0-.18-.005-.362-.013-.54a8.49 8.49 0 0 0 2.087-2.165l-.001-.001z"/>
    </symbol>
    <symbol id="instagram" viewBox="0 0 32 32">
      <path d="M16 13.001a3.004 3.004 0 0 0-3 3 3.004 3.004 0 0 0 3 3 2.998 2.998 0 0 0 3-3 2.998 2.998 0 0 0-3-3zm0-2a4.997 4.997 0 0 1 5 5 5 5 0 1 1-5-5zm6.5-.25a1.252 1.252 0 0 1-1.25 1.25 1.254 1.254 0 0 1-1.25-1.25 1.252 1.252 0 0 1 1.25-1.25 1.254 1.254 0 0 1 1.25 1.25zM16 8.001c-2.474 0-2.878.007-4.029.058-.784.037-1.31.142-1.798.332a2.886 2.886 0 0 0-1.08.703 2.886 2.886 0 0 0-.704 1.08c-.19.49-.295 1.015-.331 1.798C8.006 13.076 8 13.462 8 16.001c0 2.474.007 2.878.058 4.029.037.783.142 1.31.331 1.797.17.435.37.748.702 1.08.337.336.65.537 1.08.703.494.191 1.02.297 1.8.333 1.104.052 1.49.058 4.029.058 2.474 0 2.878-.007 4.029-.058.782-.037 1.309-.142 1.797-.331a2.92 2.92 0 0 0 1.08-.702c.337-.337.538-.65.704-1.08.19-.493.296-1.02.332-1.8.052-1.104.058-1.49.058-4.029 0-2.474-.007-2.878-.058-4.029-.037-.782-.142-1.31-.332-1.798a2.916 2.916 0 0 0-.703-1.08 2.878 2.878 0 0 0-1.08-.704c-.49-.19-1.016-.295-1.798-.331-1.104-.052-1.49-.058-4.029-.058zm0-2c2.717 0 3.056.01 4.122.06 1.065.05 1.79.217 2.428.465.66.254 1.216.598 1.772 1.153.509.5.902 1.105 1.153 1.772.247.637.415 1.363.465 2.428.047 1.066.06 1.405.06 4.122s-.01 3.056-.06 4.122c-.05 1.065-.218 1.79-.465 2.428a4.875 4.875 0 0 1-1.153 1.772c-.5.508-1.105.902-1.772 1.153-.637.247-1.363.415-2.428.465-1.066.047-1.405.06-4.122.06s-3.056-.01-4.122-.06c-1.065-.05-1.79-.218-2.428-.465a4.897 4.897 0 0 1-1.772-1.153 4.905 4.905 0 0 1-1.153-1.772c-.248-.637-.415-1.363-.465-2.428-.047-1.066-.06-1.405-.06-4.122s.01-3.056.06-4.122.217-1.79.465-2.428a4.875 4.875 0 0 1 1.153-1.772A4.897 4.897 0 0 1 9.45 6.526c.638-.248 1.362-.415 2.428-.465 1.066-.047 1.405-.06 4.122-.06z"/>
    </symbol>
  </defs>
</svg>